<svg width="512" height="512" viewBox="0 0 512 512" fill="none" xmlns="http://www.w3.org/2000/svg">
  <defs>
    <linearGradient id="g1" x1="96" y1="64" x2="432" y2="448" gradientUnits="userSpaceOnUse">
      <stop stop-color="#7DF9FF"/>
      <stop offset="1" stop-color="#2F6BFF"/>
    </linearGradient>
    <linearGradient id="g2" x1="120" y1="112" x2="392" y2="400" gradientUnits="userSpaceOnUse">
      <stop stop-color="#0F172A"/>
      <stop offset="1" stop-color="#111827"/>
    </linearGradient>
  </defs>

  <!-- Lens ring -->
  <circle cx="256" cy="256" r="180" fill="url(#g1)"/>
  <circle cx="256" cy="256" r="128" fill="url(#g2)"/>
  <circle cx="256" cy="256" r="82" fill="#020617"/>

  <!-- Accent highlights -->
  <circle cx="220" cy="206" r="14" fill="#E0FBFF" opacity="0.95"/>
  <circle cx="286" cy="304" r="22" fill="#E0FBFF" opacity="0.9"/>
  <path d="M146 196C166 148 212 112 266 112C315 112 359 141 382 184" stroke="#E6FDFF" stroke-width="20" stroke-linecap="round" opacity="0.9"/>

  <!-- Stylized S in center for brand recognition -->
  <path d="M286 188C274 176 255 170 235 174C212 178 194 194 194 216C194 237 211 250 244 257C278 265 291 273 291 291C291 310 272 326 246 330C223 334 200 327 186 312" stroke="url(#g1)" stroke-width="18" stroke-linecap="round"/>
</svg>
